<?xml version="1.0" encoding="UTF-8"?><svg id="Layer_1" xmlns="http://www.w3.org/2000/svg" viewBox="0 0 271.81 25.87"><g id="_위기대응_클라우드_플랫폼"><path d="M17.33,25.11h3.37V0h-3.37V25.11Zm-4-12.07c-.99,.05-2.13,.1-3.42,.14-1.29,.04-2.75,.06-4.37,.08-1.63,.02-3.48,.03-5.55,.03v2.92H3.28c1.02,0,1.98,0,2.9-.03v8.21h3.37v-8.26c1.46-.04,2.74-.09,3.83-.15,1.1-.06,2.06-.15,2.89-.26l-.24-2.89c-.81,.09-1.71,.16-2.7,.22ZM3.02,10.03c.58,.46,1.26,.82,2.07,1.08,.8,.26,1.71,.39,2.71,.39s1.89-.13,2.7-.39c.81-.26,1.5-.62,2.08-1.08,.58-.46,1.02-1,1.32-1.62,.31-.62,.46-1.28,.46-1.98v-.86c0-.7-.15-1.36-.46-1.98-.31-.62-.75-1.16-1.32-1.62-.58-.46-1.27-.82-2.08-1.08-.81-.26-1.71-.39-2.7-.39s-1.91,.13-2.71,.39c-.8,.26-1.49,.62-2.07,1.08-.58,.46-1.02,1-1.32,1.62-.31,.62-.46,1.28-.46,1.98v.86c0,.7,.15,1.36,.46,1.98,.31,.62,.75,1.16,1.32,1.62Zm1.43-4.28c0-.32,.08-.63,.24-.93,.16-.3,.39-.56,.69-.78,.3-.22,.65-.41,1.07-.54,.41-.14,.86-.2,1.35-.2s.94,.07,1.35,.2c.41,.13,.77,.32,1.07,.54,.3,.23,.53,.49,.69,.78,.16,.3,.24,.61,.24,.93v.49c0,.32-.08,.63-.24,.93s-.39,.56-.69,.78c-.3,.23-.65,.4-1.07,.54-.41,.14-.86,.2-1.35,.2s-.94-.07-1.35-.2c-.41-.14-.77-.31-1.07-.54-.3-.22-.53-.49-.69-.78s-.24-.61-.24-.93v-.49Zm20.36-.57h8.18v1.86c0,.67-.03,1.27-.08,1.81-.05,.54-.18,1.05-.36,1.54-.19,.49-.47,.97-.84,1.44-.37,.48-.87,.98-1.51,1.51-.64,.53-1.44,1.11-2.39,1.74-.95,.63-2.11,1.35-3.46,2.16l1.81,2.7c1.49-.92,2.79-1.74,3.87-2.47,1.09-.73,2.01-1.41,2.77-2.05,.76-.64,1.37-1.26,1.85-1.85,.48-.59,.85-1.21,1.11-1.85,.26-.64,.44-1.33,.53-2.07,.09-.74,.14-1.56,.14-2.46V2.24h-11.61v2.94Zm16.15,19.93h3.43V0h-3.43V25.11Zm14.36-9.69c-1.12,.05-2.22,.08-3.32,.08h-.78V5.32h6.32V2.38h-9.69V18.44h4.16c1.13,0,2.32-.03,3.55-.08,1.23-.05,2.4-.18,3.5-.38l-.35-2.92c-1.13,.18-2.26,.3-3.37,.35Zm10.31-6.86h-2.21V.51h-3.27V23.9h3.27V11.5h2.21v13.61h3.27V0h-3.27V8.56Zm10.71,.57c.73,.4,1.6,.7,2.61,.9,1.01,.21,2.11,.31,3.32,.31s2.31-.1,3.32-.31c1.01-.21,1.88-.51,2.61-.9,.73-.4,1.3-.89,1.7-1.47,.4-.58,.61-1.26,.61-2.01v-.65c0-.76-.2-1.43-.61-2.01-.4-.58-.97-1.08-1.7-1.47-.73-.4-1.6-.7-2.61-.9-1.01-.21-2.12-.31-3.32-.31s-2.31,.1-3.32,.31c-1.01,.21-1.88,.51-2.61,.9-.73,.4-1.3,.89-1.7,1.47-.4,.59-.61,1.26-.61,2.01v.65c0,.76,.2,1.43,.61,2.01,.4,.59,.97,1.08,1.7,1.47Zm1.07-4.02c0-.31,.13-.58,.38-.84,.25-.25,.59-.47,1.03-.65,.43-.18,.95-.32,1.54-.42,.59-.1,1.23-.15,1.92-.15s1.32,.05,1.92,.15c.59,.1,1.11,.24,1.54,.42,.43,.18,.77,.4,1.03,.65,.25,.25,.38,.53,.38,.84v.43c0,.31-.13,.59-.38,.84-.25,.25-.59,.47-1.03,.65-.43,.18-.95,.32-1.54,.42-.59,.1-1.23,.15-1.92,.15s-1.32-.05-1.92-.15c-.59-.1-1.11-.24-1.54-.42-.43-.18-.77-.4-1.03-.65-.25-.25-.38-.53-.38-.84v-.43Zm10.56,11.85c-.74-.38-1.6-.66-2.58-.85-.98-.19-2.02-.28-3.12-.28s-2.14,.09-3.12,.28c-.98,.19-1.84,.47-2.58,.85-.74,.38-1.32,.86-1.76,1.44-.43,.59-.65,1.26-.65,2.04v.81c0,.79,.22,1.48,.65,2.05,.43,.58,1.02,1.05,1.76,1.43,.74,.38,1.6,.66,2.58,.85,.98,.19,2.02,.28,3.12,.28s2.14-.09,3.12-.28c.98-.19,1.84-.47,2.58-.85,.74-.38,1.32-.86,1.76-1.43,.43-.58,.65-1.26,.65-2.05v-.81c0-.77-.22-1.45-.65-2.04-.43-.58-1.02-1.07-1.76-1.44Zm-.97,4.08c0,.32-.14,.61-.4,.86-.27,.25-.63,.47-1.07,.65-.44,.18-.95,.32-1.51,.42-.57,.1-1.15,.15-1.74,.15s-1.17-.05-1.74-.15c-.57-.1-1.07-.24-1.51-.42-.44-.18-.8-.4-1.07-.65-.27-.25-.4-.54-.4-.86v-.38c0-.32,.13-.61,.4-.86,.27-.25,.63-.47,1.07-.65,.44-.18,.94-.32,1.51-.42,.57-.1,1.15-.15,1.74-.15s1.17,.05,1.74,.15c.57,.1,1.07,.24,1.51,.42,.44,.18,.8,.4,1.07,.65,.27,.25,.4,.54,.4,.86v.38Zm-16.23-6.51h23v-2.78h-23v2.78Zm35.1,6.08h14.07v-5.97h-16.07v1.62h14.2v2.75h-14.07v5.99h16.66v-1.62h-14.8v-2.78Zm13.97-13.27c.1-1.02,.15-1.97,.15-2.85V1h-16.15v1.67h14.28v2.35c0,.16,0,.32-.03,.49l-14.55,.22,.05,1.7,14.39-.27c-.05,.52-.12,1.04-.19,1.57-.07,.52-.16,1.03-.27,1.51h-16.9v1.65h22.68v-1.65h-3.86c.16-.92,.29-1.89,.39-2.9ZM143.59,.22h-1.92V24.89h1.92V11.15h4.1v-1.7h-4.1V.22Zm-8.28,16.73c-1.41,.08-2.8,.12-4.17,.12h-3.48v-6.08h8.96V2.21h-10.85v1.67h8.96v5.43h-8.96v9.45h4.89c1.48,0,2.97-.04,4.47-.12,1.5-.08,2.97-.24,4.41-.47l-.22-1.65c-1.26,.2-2.6,.34-4.01,.42Zm18.62-6.06c.77,.43,1.64,.76,2.61,.97,.96,.22,1.95,.32,2.96,.32s1.97-.11,2.94-.32c.97-.22,1.84-.54,2.62-.97,.77-.43,1.39-.96,1.86-1.59,.47-.63,.7-1.35,.7-2.16v-1.24c0-.81-.23-1.53-.7-2.16-.47-.63-1.09-1.16-1.86-1.59-.77-.43-1.65-.76-2.62-.97-.97-.22-1.95-.32-2.94-.32s-1.99,.11-2.96,.32c-.96,.22-1.83,.54-2.61,.97-.77,.43-1.4,.96-1.86,1.59-.47,.63-.7,1.35-.7,2.16v1.24c0,.81,.23,1.53,.7,2.16,.47,.63,1.09,1.16,1.86,1.59Zm-.68-4.83c0-.54,.17-1.03,.5-1.46,.33-.43,.79-.8,1.36-1.09,.58-.3,1.24-.53,1.98-.69,.75-.16,1.54-.24,2.39-.24s1.62,.08,2.38,.24c.76,.16,1.42,.39,2,.69,.58,.3,1.03,.66,1.36,1.09,.33,.43,.5,.92,.5,1.46v.92c0,.54-.17,1.03-.5,1.46-.33,.43-.79,.8-1.36,1.09-.58,.3-1.24,.53-2,.69-.76,.16-1.55,.24-2.38,.24s-1.64-.08-2.39-.24c-.75-.16-1.41-.39-1.98-.69-.58-.3-1.03-.66-1.36-1.09-.33-.43-.5-.92-.5-1.46v-.92Zm-5.1,10.37h10.39v8.48h1.92v-8.48h10.37v-1.65h-22.68v1.65Zm43.39-4.32h-14.5V4.1h14.23v-1.65h-16.15V13.74h16.42v-1.65Zm-19.63,9.31h22.68v-1.65h-22.68v1.65Zm49.82-13.99h-3.65V2.56h3.54V1h-17.33v1.57h3.54V7.42h-3.65v1.57h17.55v-1.57Zm-5.51,0h-6.53V2.56h6.53V7.42Zm-14.61,5.37h22.68v-1.62h-22.68v1.62Zm5.21,8.02h14.09v-5.72h-16.07v1.59h14.23v2.56h-14.09v5.75h16.66v-1.59h-14.82v-2.59Zm34.02-12.5h3.59v8.05h1.86V.22h-1.86V6.61h-3.59V.54h-1.86V14.12h1.86v-5.81Zm-7.91,5.32c.85-.04,1.62-.09,2.34-.16,.71-.07,1.43-.15,2.15-.24l-.22-1.65c-.67,.09-1.32,.17-1.97,.23-.65,.06-1.32,.11-2.03,.15-.7,.04-1.45,.06-2.24,.08-.79,.02-1.67,.03-2.65,.03v-3.54h7.15V1.7h-9.02v1.67h7.15v3.54h-7.15v6.83c1.39,0,2.6,0,3.65-.03,1.04-.02,1.99-.04,2.84-.08Zm8.83,7.53c-.52-.27-.96-.53-1.32-.78-.36-.25-.65-.54-.88-.85-.23-.31-.39-.67-.49-1.07-.1-.4-.15-.87-.15-1.43v-1.76h-1.89v1.76c0,.56-.05,1.04-.16,1.44-.11,.4-.28,.77-.51,1.08-.23,.32-.53,.6-.88,.85-.35,.25-.78,.5-1.28,.76-.36,.18-.75,.37-1.17,.57-.42,.2-.86,.4-1.3,.59-.44,.2-.89,.39-1.35,.58-.46,.19-.89,.36-1.28,.53l.81,1.54c.88-.36,1.76-.75,2.65-1.17,.88-.42,1.63-.79,2.24-1.09,1.8-.9,2.86-1.68,3.19-2.35,.32,.67,1.39,1.45,3.19,2.35,.61,.31,1.36,.67,2.24,1.09,.88,.42,1.76,.81,2.65,1.17l.78-1.54c-.81-.32-1.68-.69-2.62-1.11-.94-.41-1.76-.8-2.46-1.16Zm10.69,3.67h16.04v-8.18h-16.04v8.18Zm1.84-6.48h12.37v4.78h-12.37v-4.78Zm7.13-5.91v-2.81h7.83v-1.57h-3.65V2.78h3.54V1.22h-17.33v1.57h3.54v5.29h-3.65v1.57h7.83v2.81h-10.39v1.62h22.68v-1.62h-10.4Zm-4.18-4.37V2.78h6.48v5.29h-6.48Z"/></g></svg>