<?xml version="1.0" encoding="UTF-8"?><svg id="Layer_1" xmlns="http://www.w3.org/2000/svg" viewBox="0 0 18.02 18.03"><defs><style>.cls-1{fill:#7a7a7a;}</style></defs><path id="_패스_48" class="cls-1" d="M2.86,17.83C1.15,17.29,0,15.7,0,13.9c-.01-.77,.18-1.52,.55-2.19,.26-.5,.59-.87,2.58-2.86,2.44-2.44,2.73-2.66,3.88-3,.78-.17,1.58-.17,2.36,0,.85,.19,1.59,.72,2.04,1.47,.19,.59-.13,1.22-.72,1.42-.38,.13-.8,.04-1.1-.24-.37-.37-.88-.56-1.4-.53-.95,0-1.11,.12-3.43,2.43-.85,.74-1.61,1.58-2.27,2.49-.54,.91-.23,2.08,.67,2.62,.3,.18,.65,.27,1.01,.26,.8,0,1.2-.25,2.56-1.57l1.15-1.12,.41,.19c.62,.26,1.29,.36,1.96,.28l.39-.07-1.87,1.85c-2.01,1.99-2.43,2.29-3.51,2.57-.79,.19-1.62,.17-2.4-.06h0Zm6.48-5.53c-1.11-.06-2.13-.65-2.73-1.59-.19-.6,.14-1.24,.74-1.43,.17-.05,.34-.07,.51-.04,.25,.08,.48,.21,.69,.37,.63,.53,1.53,.63,2.26,.24,1.71-1.41,3.28-2.97,4.7-4.67,.43-.7,.36-1.6-.16-2.24-.35-.46-.91-.72-1.49-.69-.8,0-1.2,.25-2.56,1.57l-1.15,1.12-.41-.19c-.62-.26-1.29-.36-1.96-.28l-.39,.07,1.87-1.85c.71-.83,1.53-1.55,2.45-2.15C12.38,.18,13.14,0,13.91,0c1.85-.01,3.49,1.22,3.98,3.01,.17,.74,.17,1.5,0,2.24-.11,.36-.25,.72-.42,1.06-.26,.5-.59,.87-2.58,2.86-2.36,2.36-2.62,2.57-3.65,2.93-.62,.18-1.26,.25-1.9,.19h0v.02Z"/></svg>