<?xml version="1.0" encoding="UTF-8"?><svg id="Layer_1" xmlns="http://www.w3.org/2000/svg" viewBox="0 0 54.39 34.78"><defs><style>.cls-1{fill:#ff944d;}.cls-2{fill:#ff6701;}</style></defs><g id="_그룹_135"><g id="_그룹_133"><path id="_패스_49" class="cls-1" d="M0,.19H3.39C5.67,.19,7.42,.98,7.42,3.41s-1.76,3.4-3.97,3.4h-1.38v3.65H0V.18H0ZM3.3,5.19c1.42,0,2.1-.6,2.1-1.78s-.75-1.6-2.17-1.6h-1.17v3.38h1.24Z"/><path id="_패스_50" class="cls-1" d="M8.14,8.36c0-1.67,1.35-2.54,4.47-2.88-.03-.76-.36-1.35-1.32-1.35-.77,.05-1.5,.31-2.14,.74l-.74-1.35c.97-.64,2.09-1,3.25-1.03,1.97,0,2.99,1.18,2.99,3.43v4.54h-1.67l-.15-.83h-.04c-.63,.61-1.47,.98-2.35,1.03-1.22,.05-2.26-.9-2.31-2.12,0-.06,0-.13,0-.19h.01Zm4.47-.05v-1.57c-1.89,.25-2.53,.76-2.53,1.46,0,.61,.43,.87,1.03,.87,.59-.03,1.13-.3,1.5-.76Z"/><path id="_패스_51" class="cls-1" d="M16.35,8.36c0-1.67,1.35-2.54,4.47-2.88-.03-.76-.36-1.35-1.32-1.35-.77,.05-1.5,.31-2.14,.74l-.74-1.35c.97-.64,2.09-1,3.25-1.03,1.97,0,2.99,1.18,2.99,3.43v4.54h-1.67l-.15-.83h-.04c-.63,.61-1.47,.98-2.35,1.03-1.22,.05-2.26-.9-2.31-2.12,0-.06,0-.13,0-.19h.01Zm4.47-.05v-1.57c-1.89,.25-2.53,.76-2.53,1.46,0,.61,.43,.87,1.03,.87,.59-.03,1.13-.3,1.5-.76Z"/><path id="_패스_52" class="cls-1" d="M24.43,9.17l1.18-1.42c.7,.68,1.63,1.09,2.61,1.14,1.07,0,1.64-.46,1.64-1.18,0-.76-.63-1-1.54-1.39l-1.38-.58c-1.21-.38-2.05-1.5-2.08-2.77C24.86,1.29,26.33,0,28.42,0c1.21,0,2.36,.47,3.22,1.32l-1.04,1.29c-.6-.54-1.37-.84-2.18-.85-.9,0-1.49,.4-1.49,1.08,0,.74,.74,1,1.61,1.35l1.35,.57c1.24,.35,2.1,1.5,2.07,2.79,0,1.68-1.4,3.11-3.78,3.11-1.4,0-2.74-.54-3.75-1.5h0Z"/><path id="_패스_53" class="cls-1" d="M33.46,4.76h3.79v1.46h-3.79v-1.46Z"/><path id="_패스_54" class="cls-1" d="M40.37,1.9h-2.89V.19h7.86V1.9h-2.92V10.47h-2.06V1.9h.01Z"/><path id="_패스_55" class="cls-1" d="M51.21,7.83h-3.33l-.72,2.64h-2.08L48.37,.19h2.42l3.31,10.28h-2.15l-.72-2.64h-.02Zm-.44-1.6l-.31-1.13c-.32-1.07-.6-2.25-.9-3.36h-.06c-.26,1.13-.57,2.29-.88,3.36l-.31,1.13h2.46Z"/></g><g id="_그룹_134"><path id="_패스_56" class="cls-2" d="M0,17.67H10.93v3.4H4.12v3.75h5.84v3.43H4.12v6.53H0V17.67H0Z"/><path id="_패스_57" class="cls-2" d="M22.68,34.78l-3.15-6.02h-1.98v6.02h-4.12V17.67h6.28c3.66,0,6.69,1.24,6.69,5.38,.15,2.1-1.03,4.07-2.94,4.94l3.82,6.78h-4.6Zm-5.13-9.26h1.84c1.95,0,2.99-.85,2.99-2.46s-1.04-2.14-2.99-2.14h-1.84v4.6Z"/><path id="_패스_58" class="cls-2" d="M29.26,17.67h10.85v3.4h-6.74v3.17h5.73v3.45h-5.73v3.63h6.99v3.45h-11.11V17.66h.01Z"/><path id="_패스_59" class="cls-2" d="M43.29,17.67h10.85v3.4h-6.74v3.17h5.73v3.45h-5.73v3.63h6.99v3.45h-11.11V17.66h.01Z"/></g></g></svg>